<svg width="11" height="11" viewBox="0 0 11 11" fill="none" xmlns="http://www.w3.org/2000/svg">
<path d="M1.92969 6.64844C1.0918 5.79785 0.672852 4.87109 0.660156 3.88086C0.672852 2.19238 2.03125 0.84668 3.69434 0.84668C4.41797 0.84668 5.12891 1.10059 5.66211 1.58301C6.20801 1.10059 6.91895 0.84668 7.65527 0.84668C9.31836 0.84668 10.6641 2.19238 10.6768 3.88086C10.6641 4.87109 10.2451 5.79785 9.40723 6.64844L5.66211 10.3809L1.92969 6.64844ZM8.69629 5.96289C9.36914 5.30273 9.69922 4.5918 9.71191 3.88086C9.69922 2.73828 8.77246 1.82422 7.65527 1.82422C7.02051 1.82422 6.44922 2.10352 5.66211 3.04297C4.90039 2.10352 4.31641 1.82422 3.69434 1.82422C2.56445 1.82422 1.65039 2.73828 1.6377 3.88086C1.65039 4.5918 1.96777 5.30273 2.62793 5.96289L5.66211 8.99707L8.69629 5.96289Z" fill="#B8B8B8"/>
</svg>
